<svg version="1" xmlns="http://www.w3.org/2000/svg" width="801.333" height="801.333" viewBox="0 0 601.000000 601.000000"><path d="M274.5 1.1C214.8 6.7 159.4 28.8 113 65.6c-11.8 9.3-38.1 35.8-47.8 48.2-69.9 88.4-84.6 208.3-38.1 311.3 26.1 57.8 72.4 107.8 128.4 138.8 58.6 32.3 128.2 44.1 195.5 33 67.8-11.2 131.8-47.2 176.9-99.4 37.6-43.6 61.5-95.6 70.2-152.5 2.6-17.5 3.6-52.7 2-70.6-8-86.8-50.7-163.3-120-215-41.2-30.7-89.8-50.3-141.2-56.9-15-2-50.6-2.7-64.4-1.4zm58 134.9c23 4.9 47.5 15.8 64.8 28.5 10.7 8 12.5 8.2 16.3 1.8 4.9-8.4 15.4-17.7 25.7-22.8 11.8-5.8 21.3-7.9 33.2-7.2 27.3 1.5 49.9 18.8 59.2 45.2 2.4 7.1 2.7 9.4 2.7 20.5s-.3 13.4-2.7 20.5c-3.7 10.5-8.7 18.6-16.2 26-10.9 11-25.7 17.9-41 19.2-4.4.3-8 1.2-8.6 2-.9 1-.9 3.9 0 11.4.6 5.5 1.1 13.2 1.1 17.1v7.2l6.3 6.1c17.9 17.3 27 38.9 27 63.5 0 23.6-8 43.5-24.2 60.4-11.5 11.9-23.7 19.4-39.8 24.3-7.7 2.3-10.6 2.6-23.3 2.7-15.7.1-23.8-1.5-36.2-7.1l-5.8-2.6-10.2 4.1c-20.8 8.1-39.7 11.6-62.8 11.5-19.6-.1-34.8-2.7-52.5-8.9-7.1-2.5-14-4.8-15.2-5.1-1.2-.3-5.6.8-10 2.5-48.8 18.9-101.6-7.5-116.9-58.5-2.3-7.6-2.7-10.7-2.8-22.8 0-14.8 1-20.6 5.9-33.1 4.2-10.6 13.1-24 21.4-31.8 3-2.9 3.1-3.3 3.1-11.5 0-4.7.7-13.6 1.5-19.6.8-6.1 1.5-11.1 1.5-11.3 0-.1-1.9-.2-4.2-.2-24.6-.1-51-19.6-59.4-43.9-8.6-24.8-2.8-49.8 16.1-68.6 13.8-13.9 30.2-20.2 49.5-19.2 10.8.6 19.3 3.1 28.7 8.3 7.6 4.2 16.8 12.5 21.4 19.3 5.2 7.7 4 7.8 20.1-3 19.6-13.2 39.8-21.3 65.3-26 14.3-2.6 46.6-2.1 61 1.1z"/><path d="M276.8 136.5c-25.6 3.5-48.3 12.2-69.7 26.6-5.2 3.5-10.4 7-11.6 7.8-3.5 2.3-6.8.7-11-5.4-19.2-27.9-58.6-35.3-87-16.3-33.7 22.5-38.2 69.1-9.5 97.8 11.6 11.6 25.5 17.7 41.8 18.3 4 .1 7.2.4 7.2.7 0 .3-.7 4.5-1.5 9.5-.8 4.9-1.5 13.9-1.5 19.8 0 11-1.2 15.8-4.3 17-2.9 1.1-14.2 16.6-18.3 25.2-6.1 12.6-7.6 18.9-8.1 34.3-.5 11.2-.2 14.7 1.6 22.6 5.8 24.8 22.3 45.6 45.6 57.4 13.2 6.6 30 9.6 45.7 8.2 9.6-.9 14.4-2.1 24.9-6.1l7.5-2.9 10.7 4c39.3 14.8 82.8 14.7 120.5-.4 4.9-2 9.8-3.6 10.9-3.6 1.2 0 4.7 1.1 7.8 2.6 20 8.8 46.5 8.9 67.2.2 31.7-13.2 52.3-44.2 52.3-78.9 0-22.8-8.2-42.9-24.6-59.9l-8.2-8.5-.7-11.5c-.3-6.3-1-14.1-1.5-17.4-.9-5.8-.2-9.1 2.4-10.8.6-.4 4-1 7.6-1.3 28.6-2.9 50.7-21.2 57.7-47.8 2.2-8.2 2.1-23.3-.1-31.6-5.9-22.1-23.7-39.9-45.6-45.6-7.8-2.1-22.4-2.3-30-.6-14.7 3.4-30.3 14.3-39.1 27.3-4.8 7-7.6 8.1-12.2 4.7-1.8-1.3-7.4-5.2-12.6-8.7-33.4-22.5-74.7-32.1-114.3-26.7zm-34.7 85.1c17.5 5.2 31.1 18.8 36.3 36.3 2.3 7.8 2.1 21.3-.4 29.3-6.6 21.4-27.6 36.8-50 36.8-28.4 0-52-23.8-52-52.5 0-14.1 4.9-25.6 15.4-36.1 7.4-7.4 12.4-10.5 21.6-13.5 7.2-2.3 21.7-2.5 29.1-.3zm138.9-.5c11.4 2.6 23.8 11.3 30.5 21.5 10.8 16.2 12 34.7 3.5 51.9-8.6 17.6-24.5 28.1-44 29.2-25.2 1.5-47-15-53.5-40.2-6.4-25.2 9-52.5 34.5-61.2 7.2-2.5 21-3.1 29-1.2zm-68.4 115.8c4.2 1.9 8.4 6.3 8.4 8.8 0 .8-1.5 3-3.3 4.8-11.8 11.8-45.6 3.1-35.9-9.2 4.7-6 21.8-8.5 30.8-4.4z"/><path d="M216.3 223.4c-8.8 2.2-16.4 6.5-23.3 13.5-15.3 15.5-19 37.5-9.4 56.9 3.5 7.2 11.5 16.6 16.4 19.2 2.2 1.2 2.1.9-.9-2.5-1.9-2.2-4.6-6.4-6-9.5-3.6-7.7-3.7-20.9-.2-28.8l2.4-5.3 2.2 2.1c2.7 2.6 8.6 2.7 10.8.2 2.4-2.6 2.2-8.1-.3-10.8l-2.1-2.1 4.7-2.2c18.1-8.5 38.8-1.3 47.6 16.7 3 6.1 3.3 7.4 3.3 16.2 0 8.4-.3 10.1-2.8 14.7-3.5 6.7-8.1 11.9-13.7 15.6-5.5 3.5-2.1 2.7 6.5-1.6 7.4-3.7 17-13.3 20.7-20.7 7.4-14.9 7.5-31.7.3-46-3.6-7.1-13.4-17.1-20.3-20.8-10.7-5.7-24.4-7.6-35.9-4.8z"/><path d="M229.1 280.2c-12.2 6.5-11.7 23.9.7 29.9 8.4 4.2 19.4.4 22.8-7.7 1.8-4.4 1.8-11.8-.1-15.4-4.2-8.1-15.1-11.3-23.4-6.8zM356 223.6c-16.8 4.4-30 17-35 33.1-2.9 9.4-2.7 22.6.4 31.4 4.9 14.1 16.3 25.7 29.6 30.4 2.2.8 4 1.3 4 1.1 0-.1-2.2-1.7-4.9-3.4-5.7-3.7-9.2-8.1-12.9-16-2.2-4.7-2.6-7.2-2.7-13.7 0-6.9.5-8.9 3.1-14.5 7.1-15 23-23.8 37.9-21.1 5.5 1 14.5 4.5 14.5 5.5 0 .3-.9 1.5-2 2.6-4.5 4.5-1.1 12 5.5 12 2.2 0 4.1-.7 5.4-2.1l1.9-2.1 2 3.8c6.5 12.8 4.4 27.9-5.5 40.4l-2.8 3.4 3.2-2.2c4.7-3.3 12.2-12 14.9-17.4 3.5-6.9 5.4-15.2 5.4-23.3-.1-32.1-31.1-56.1-62-47.9z"/><path d="M351.1 280.2c-16.2 8.7-8.7 33 9.6 31.6 9.1-.8 15.3-7.5 15.3-16.8 0-13.1-13.3-21-24.9-14.8z"/></svg>